<svg width="512" height="512" viewBox="0 0 512 512" fill="none" xmlns="http://www.w3.org/2000/svg">
  <rect width="512" height="512" rx="128" fill="#2563eb"/>
  <path d="M128 192C128 174.327 142.327 160 160 160H240C248.837 160 256 152.837 256 144V112C256 103.163 263.163 96 272 96H400C408.837 96 416 103.163 416 112V400C416 408.837 408.837 416 400 416H112C103.163 416 96 408.837 96 400V224C96 215.163 103.163 208 112 208H128V192Z" fill="white"/>
  <path d="M176 256H336M176 304H336M176 352H256" stroke="#2563eb" stroke-width="16" stroke-linecap="round"/>
</svg>
